<!-- Generated by IcoMoon.io -->
<svg version="1.1" xmlns="http://www.w3.org/2000/svg" width="700" height="550" viewBox="0 0 91 64">
<path fill="#efefef" d="M20.95 52.424c-0.002 2.224-0.131 4.446-0.133 6.67-0 0.4 0.889 0.4 0.889 0 0.002-2.224 0.131-4.446 0.133-6.67 0-0.4-0.889-0.4-0.889 0z"></path>
<path fill="#efefef" d="M36.423 60.397c-0.81-0.458-2.102-0.365-2.918 0.026-0.417 0.199-0.053 0.817 0.362 0.619 0.436-0.208 0.979-0.224 1.451-0.198 0.235 0.013 0.465 0.060 0.686 0.143 0.139 0.052 0.243 0.146 0.247 0.239 0.010 0.212-0.211 0.444-0.345 0.581-0.17 0.174-0.438 0.245-0.666 0.303-0.654 0.166-1.366 0.129-2.030 0.052-0.6-0.069-1.245-0.209-1.775-0.51-0.386-0.22-0.937-0.771-0.519-1.182 0.415-0.407 1.123-0.558 1.662-0.711 0.586-0.166 1.171-0.355 1.745-0.56 0.746-0.266 1.69-0.762 1.256-1.721-0.333-0.735-1.314-0.961-2.037-1.047-0.459-0.055-0.453 0.663 0 0.717 0.424 0.051 1.24 0.197 1.403 0.668 0.18 0.52-0.986 0.756-1.302 0.858-0.567 0.182-1.135 0.35-1.703 0.527s-1.201 0.399-1.614 0.848c-0.434 0.472-0.334 1.089 0.033 1.566 0.404 0.527 0.924 0.809 1.547 1.004 1.205 0.377 2.808 0.537 3.996 0.023 0.861-0.372 1.567-1.654 0.521-2.244z"></path>
<path fill="#efefef" d="M23.864 44.206c0 0 13.653 9.254 9.985 13.46-2.741 3.143-7.021 1.613-8.568 1.147-3.318-0.998-8.611-11.763-1.417-14.607z"></path>
<path fill="#efefef" d="M22.456 53.642c-0.002 1.835-0.131 3.669-0.133 5.504-0 0.33 0.889 0.33 0.889 0 0.002-1.835 0.131-3.669 0.133-5.504 0-0.33-0.889-0.33-0.889 0z"></path>
<path fill="#efefef" d="M25.926 46.677c0 2.109-1.624 3.819-3.736 3.819-2.109 0-3.902-1.71-3.902-3.819s1.71-3.072 3.819-3.072c2.109 0 3.819 0.963 3.819 3.072z"></path>
<path fill="#efefef" d="M23.579 43.922l2.596-1.079c0 0-0.047 1.618-0.849 3.236z"></path>
<path fill="#efefef" d="M20.471 43.922l-2.43-1.161c0 0-0.119 1.701 0.683 3.319z"></path>
<path fill="#fff" d="M22.097 47.942c0.021 0.017 0.055 0.017 0.076-0l0.367-0.301c0.021-0.017 0.016-0.033-0.011-0.033h-0.796c-0.027 0-0.032 0.015-0.011 0.032z"></path>
<path fill="#fff" d="M22.904 46.433h0.060c0 0 0.773 0.147 1.386 0.010l0.040 0.031c0 0-0.673 0.482-1.486-0.041z"></path>
<path fill="#fff" d="M21.335 46.433h-0.060c0 0-0.773 0.147-1.386 0.010l-0.040 0.031c0 0 0.673 0.482 1.486-0.041z"></path>
<path fill="#efefef" d="M28.536 58.463c-1.523 0.079-3.051 0.032-4.573 0.111-0.274 0.014-0.227 0.902 0.047 0.888 1.523-0.079 3.051-0.032 4.573-0.111 0.274-0.014 0.227-0.902-0.047-0.888z"></path>
<path fill="#efefef" d="M68.584 53.015c-0.018-0.877-0.279-1.946-1.164-2.334-0.697-0.306-1.487-0.12-2.116 0.262-0.605 0.367-1.161 0.992-1.188 1.731-0.033 0.937 0.949 1.405 1.719 1.588 0.45 0.107 0.64-0.584 0.191-0.691-0.395-0.094-0.801-0.225-1.069-0.529-0.133-0.151-0.148-0.36-0.088-0.568 0.143-0.499 0.74-0.96 1.275-1.139 0.614-0.207 1.173-0.087 1.492 0.532 0.24 0.466 0.245 1.047 0.228 1.556-0.024 0.718-0.187 1.448-0.66 2.009-0.498 0.591-1.242 0.888-1.964 1.1-0.813 0.239-1.653 0.372-2.477 0.566-0.45 0.106-0.259 0.797 0.191 0.691 1.325-0.312 2.749-0.466 3.94-1.174 1.289-0.767 1.719-2.169 1.69-3.6z"></path>
<path fill="#efefef" d="M61.125 46.646c3.254 2.573 4.922 13.994-0.445 14.435-5.998 0.493-6.252-1.393-6.797-2.7-1.467-3.519 1.766-16.066 7.242-11.736z"></path>
<path fill="#efefef" d="M62.705 45.1c0 2.109-1.624 3.819-3.736 3.819-2.109 0-3.902-1.71-3.902-3.819s1.71-3.072 3.819-3.072c2.109 0 3.819 0.963 3.819 3.072z"></path>
<path fill="#efefef" d="M60.358 42.345l2.596-1.079c0 0-0.047 1.618-0.849 3.236z"></path>
<path fill="#efefef" d="M57.249 42.345l-2.43-1.162c0 0-0.119 1.701 0.684 3.319z"></path>
<path fill="#fff" d="M58.876 46.364c0.021 0.017 0.055 0.017 0.076-0l0.367-0.296c0.021-0.017 0.016-0.028-0.011-0.028h-0.796c-0.027 0-0.032 0.011-0.011 0.027z"></path>
<path fill="#fff" d="M59.683 44.865h0.060c0 0 0.773 0.142 1.386 0.005l0.040 0.033c0 0-0.673 0.484-1.486-0.038z"></path>
<path fill="#fff" d="M58.114 44.865h-0.060c0 0-0.773 0.142-1.386 0.005l-0.040 0.033c0 0 0.673 0.484 1.486-0.038z"></path>
<path fill="#efefef" d="M57.299 55.234c-0.002 1.945-0.059 3.888-0.062 5.833-0 0.35 0.889 0.35 0.889 0 0.002-1.945 0.059-3.888 0.062-5.833 0-0.35-0.889-0.35-0.889 0z"></path>
<path fill="#efefef" d="M59.88 55.234c-0.002 1.945-0.059 3.888-0.062 5.833-0 0.35 0.889 0.35 0.889 0 0.002-1.945 0.059-3.888 0.062-5.833 0-0.35-0.889-0.35-0.889 0z"></path>
<path fill="#efefef" d="M62.555 60.448c-0.040-0.292-0.38-0.349-0.615-0.328-0.138 0.012-0.275 0.036-0.41 0.061-0.051 0.009-0.102 0.019-0.152 0.029-0.006 0.001-0.011 0.003-0.015 0.003h-0.003c-0.389 0-0.451 0.53-0.182 0.678 0.057 0.076 0.148 0.128 0.272 0.128 0.407 0.002 1.189 0.040 1.106-0.571z"></path>
<path fill="#efefef" d="M56.963 60.62c-0.040 0.292-0.38 0.349-0.615 0.328-0.138-0.012-0.275-0.036-0.41-0.061-0.051-0.009-0.102-0.047-0.152-0.056-0.006-0.001-0.011-0.031-0.015-0.031h-0.003c-0.389 0-0.451-0.502-0.182-0.65 0.057-0.076 0.148-0.114 0.272-0.114 0.407-0.002 1.189-0.026 1.106 0.584z"></path>
<path fill="#efefef" d="M50.597 7.749c1.59 2.019 2.291 3.111 3.88 5.13 0.286 0.363 0.984-0.187 0.698-0.551-1.59-2.019-2.291-3.111-3.88-5.13-0.286-0.363-0.984 0.187-0.698 0.551z"></path>
<path fill="#efefef" d="M36.534 8.394c-1.59 2.019-2.291 3.111-3.88 5.13-0.286 0.363-0.984-0.187-0.698-0.551 1.428-1.814 2.123-2.898 3.88-5.13 0.286-0.363 0.984 0.187 0.698 0.551z"></path>
<path fill="#efefef" d="M30.802 7.444c-0.861 0.593-1.912 1.314-2.95 0.683-0.589-0.359-0.776-1.154-0.816-1.79-0.045-0.716 0.090-1.468 0.395-2.119 0.367-0.783 1.044-1.454 1.856-1.766 0.796-0.306 1.762-0.112 2.173 0.699 0.29 0.572-0.271 1.224-0.706 1.522-0.489 0.336-1.182 0.51-1.608-0.003-0.294-0.355-0.785 0.169-0.493 0.521 0.721 0.87 1.992 0.518 2.743-0.109 0.854-0.714 1.154-1.867 0.361-2.744-0.968-1.072-2.503-0.852-3.579-0.088-1.172 0.832-1.758 2.15-1.857 3.557-0.092 1.312 0.38 2.751 1.729 3.194 1.017 0.334 1.998-0.204 2.827-0.744 0.904-0.589 1.734-1.297 2.688-1.807 0.337-0.18 0.71-0.332 1.099-0.309 0.382 0.023 0.612 0.404 0.758 0.711 0.198 0.418 0.81 0.043 0.613-0.371-1.158-2.439-3.908 0.050-5.235 0.965z"></path>
<path fill="#efefef" d="M34.755 6.351c1.047-4.357 18.063-2.304 18.729-0.402 1.66 4.741-1.51 5.814-3.239 6.128-5.942 1.080-17.751 3.679-15.49-5.726z"></path>
<path fill="#efefef" d="M50.861 10.648c1.078 1.37 1.297 1.732 2.374 3.102 0.194 0.246 0.892-0.304 0.698-0.551-1.078-1.37-1.297-1.732-2.374-3.102-0.194-0.246-0.892 0.304-0.698 0.551z"></path>
<path fill="#efefef" d="M56.611 5.31c0 2.109-1.624 3.819-3.736 3.819-2.109 0-3.902-1.71-3.902-3.819s1.71-3.072 3.819-3.072c2.109 0 3.819 0.963 3.819 3.072z"></path>
<path fill="#efefef" d="M54.264 2.555l2.596-1.079c0 0-0.047 1.618-0.849 3.236z"></path>
<path fill="#efefef" d="M51.156 2.555l-2.43-1.162c0 0-0.119 1.701 0.684 3.319z"></path>
<path fill="#fff" d="M52.782 6.574c0.021 0.017 0.055 0.017 0.076-0l0.367-0.286c0.021-0.017 0.016-0.018-0.011-0.018h-0.796c-0.027 0-0.032 0.001-0.011 0.018z"></path>
<path fill="#fff" d="M53.589 5.094h0.060c0 0 0.773 0.133 1.386-0.004l0.040 0.038c0 0-0.673 0.489-1.486-0.034z"></path>
<path fill="#fff" d="M52.020 5.094h-0.060c0 0-0.773 0.133-1.386-0.004l-0.040 0.038c0 0 0.673 0.489 1.486-0.034z"></path>
<path fill="#efefef" d="M70.781 24.724c-0.249-0.645-0.632-1.194-1.245-1.537-0.55-0.308-1.204-0.38-1.823-0.383-1.215-0.006-2.555 0.433-3.743 0.057-1.005-0.318-1.757-1.138-1.879-2.197-0.103-0.894 0.172-1.872 0.75-2.566 0.347-0.417 0.814-0.72 1.356-0.677 0.652 0.051 1.278 0.785 1.497 1.355 0.214 0.557-0.096 0.982-0.653 1.081-0.601 0.107-0.879-0.393-0.809-0.953 0.057-0.458-0.66-0.452-0.717 0-0.129 1.031 0.641 1.8 1.671 1.651 0.996-0.144 1.532-1.103 1.175-2.032-0.362-0.943-1.326-1.872-2.394-1.823-0.911 0.042-1.63 0.747-2.059 1.497-1.047 1.829-0.584 4.262 1.42 5.178 1.169 0.534 2.437 0.271 3.669 0.176 0.601-0.047 1.216-0.064 1.801 0.103 0.63 0.18 1.057 0.662 1.289 1.261 0.165 0.427 0.858 0.241 0.691-0.191z"></path>
<path fill="#efefef" d="M83.719 30.691c1.59 2.019 2.29 3.111 3.88 5.13 0.286 0.363 0.984-0.187 0.698-0.551-1.59-2.019-2.29-3.111-3.88-5.13-0.286-0.363-0.984 0.187-0.698 0.551z"></path>
<path fill="#efefef" d="M68.842 28.326c-0.002 2.57-0.131 5.138-0.133 7.707-0 0.462 0.889 0.462 0.889 0 0.002-2.569 0.131-5.138 0.133-7.707 0-0.462-0.889-0.462-0.889 0z"></path>
<path fill="#efefef" d="M69.871 24.656c2.454-3.75 17.784 3.916 17.77 5.931-0.034 5.023-3.38 4.965-5.114 4.679-5.959-0.985-17.952-2.516-12.656-10.61z"></path>
<path fill="#efefef" d="M83.984 33.59c1.078 1.37 1.297 1.732 2.374 3.102 0.194 0.246 0.892-0.304 0.698-0.551-1.078-1.37-1.296-1.732-2.374-3.102-0.194-0.246-0.892 0.304-0.698 0.551z"></path>
<path fill="#efefef" d="M70.275 30.262c-0.002 1.906-0.131 3.811-0.133 5.717-0 0.343 0.889 0.343 0.889 0 0.002-1.906 0.131-3.811 0.133-5.718 0-0.343-0.889-0.343-0.889 0z"></path>
<path fill="#efefef" d="M89.375 27.75c0 2.109-1.624 3.819-3.736 3.819-2.109 0-3.902-1.71-3.902-3.819s1.71-3.073 3.819-3.073c2.109 0 3.819 0.963 3.819 3.073z"></path>
<path fill="#efefef" d="M87.028 24.995l2.596-1.079c0 0-0.047 1.618-0.849 3.236z"></path>
<path fill="#efefef" d="M83.919 24.995l-2.43-1.162c0 0-0.119 1.701 0.684 3.319z"></path>
<path fill="#fff" d="M85.546 29.015c0.021 0.017 0.055 0.017 0.076-0l0.367-0.306c0.021-0.017 0.016-0.038-0.011-0.038h-0.796c-0.027 0-0.032 0.021-0.011 0.038z"></path>
<path fill="#fff" d="M86.353 27.559h0.060c0 0 0.773 0.12 1.385-0.017l0.040 0.044c0 0-0.673 0.43-1.486-0.027z"></path>
<path fill="#fff" d="M84.784 27.559h-0.060c0 0-0.773 0.12-1.385-0.017l-0.040 0.044c0 0 0.673 0.43 1.486-0.027z"></path>
<path fill="rgba(138, 102, 178,0.4)" d="M41.306 42.090c0.242-0.161 0.693-0.302 1.011 0.354 0.222 0.458 0.656 0.306 0.931 0.474s0.443 1.169-0.238 1.377c-0.681 0.208-2.033 0.864-2.428 0.069s0.373-0.829 0.393-1.434c0.014-0.425 0.137-0.71 0.332-0.84z"></path>
<path fill="rgba(138, 102, 178,0.4)" d="M40.576 42.782c0.078 0.275-0.006 0.539-0.187 0.59s-0.39-0.131-0.467-0.406c-0.077-0.275 0.006-0.539 0.187-0.59s0.39 0.131 0.467 0.406z"></path>
<path fill="rgba(138, 102, 178,0.4)" d="M41.052 41.539c0.075 0.265-0.008 0.52-0.185 0.57s-0.38-0.124-0.455-0.389 0.008-0.52 0.185-0.569c0.177-0.050 0.38 0.124 0.455 0.389z"></path>
<path fill="rgba(138, 102, 178,0.4)" d="M42.173 41.218c0.067 0.237-0.024 0.47-0.202 0.521s-0.378-0.101-0.445-0.338c-0.067-0.237 0.024-0.47 0.202-0.521s0.378 0.101 0.444 0.338z"></path>
<path fill="rgba(138, 102, 178,0.4)" d="M43.211 41.931c0.078 0.278-0.004 0.544-0.183 0.594s-0.388-0.134-0.467-0.411c-0.078-0.278 0.004-0.544 0.183-0.595s0.388 0.134 0.467 0.411z"></path>
<path fill="rgb(222, 130, 197,0.4)" d="M16.038 13.009c0.29-0.019 0.751 0.086 0.697 0.813-0.038 0.507 0.414 0.593 0.568 0.876s-0.202 1.234-0.896 1.073c-0.694-0.161-2.193-0.272-2.136-1.157s0.739-0.531 1.059-1.044c0.225-0.361 0.475-0.546 0.709-0.561z"></path>
<path fill="rgb(222, 130, 197,0.4)" d="M15.060 13.242c-0.071 0.277-0.275 0.464-0.457 0.417s-0.272-0.308-0.201-0.585c0.071-0.277 0.275-0.463 0.457-0.417s0.272 0.308 0.201 0.585z"></path>
<path fill="rgb(222, 130, 197,0.4)" d="M16.095 12.405c-0.068 0.267-0.268 0.446-0.445 0.4s-0.267-0.298-0.199-0.565 0.268-0.446 0.445-0.4c0.178 0.045 0.267 0.298 0.199 0.565z"></path>
<path fill="rgb(222, 130, 197,0.4)" d="M17.226 12.689c-0.061 0.239-0.256 0.395-0.436 0.349s-0.276-0.277-0.215-0.516c0.061-0.239 0.256-0.395 0.436-0.349s0.276 0.277 0.215 0.515z"></path>
<path fill="rgb(222, 130, 197,0.4)" d="M17.766 13.827c-0.071 0.28-0.276 0.469-0.456 0.423s-0.269-0.31-0.198-0.59c0.071-0.28 0.276-0.469 0.456-0.423s0.269 0.31 0.198 0.59z"></path>
<path fill="#ddd" d="M9.623 54.217c0.287-0.048 0.756 0.008 0.777 0.737 0.015 0.509 0.473 0.547 0.655 0.813s-0.074 1.248-0.781 1.159c-0.707-0.089-2.209-0.044-2.244-0.93s0.68-0.604 0.945-1.148c0.186-0.383 0.416-0.592 0.647-0.631z"></path>
<path fill="#ddd" d="M8.674 54.55c-0.042 0.283-0.226 0.489-0.412 0.462s-0.302-0.279-0.26-0.561c0.042-0.283 0.226-0.489 0.412-0.462s0.302 0.279 0.26 0.561z"></path>
<path fill="#ddd" d="M9.617 53.611c-0.040 0.272-0.22 0.471-0.402 0.444s-0.296-0.269-0.256-0.541c0.040-0.272 0.22-0.471 0.402-0.444s0.296 0.269 0.256 0.541z"></path>
<path fill="#ddd" d="M10.771 53.776c-0.036 0.244-0.214 0.419-0.398 0.392s-0.303-0.247-0.267-0.491c0.036-0.244 0.214-0.419 0.398-0.392s0.303 0.247 0.267 0.491z"></path>
<path fill="#ddd" d="M11.426 54.852c-0.042 0.285-0.226 0.495-0.41 0.467s-0.3-0.281-0.257-0.566c0.042-0.285 0.226-0.495 0.41-0.467s0.3 0.281 0.257 0.566z"></path>
<path fill="#ddd" d="M77.578 48.145c0.29-0.011 0.748 0.106 0.675 0.831-0.051 0.506 0.398 0.604 0.544 0.891s-0.235 1.228-0.925 1.048c-0.689-0.18-2.184-0.33-2.104-1.214s0.753-0.511 1.086-1.016c0.234-0.355 0.489-0.533 0.724-0.541z"></path>
<path fill="#ddd" d="M76.594 48.352c-0.078 0.275-0.288 0.456-0.468 0.405s-0.263-0.316-0.185-0.59c0.078-0.275 0.288-0.456 0.468-0.405s0.263 0.316 0.185 0.59z"></path>
<path fill="#ddd" d="M77.65 47.543c-0.075 0.265-0.279 0.438-0.456 0.388s-0.259-0.305-0.183-0.57c0.075-0.265 0.279-0.438 0.456-0.388s0.259 0.305 0.183 0.57z"></path>
<path fill="#ddd" d="M78.773 47.857c-0.067 0.237-0.267 0.388-0.445 0.337s-0.269-0.284-0.201-0.521c0.067-0.237 0.267-0.388 0.445-0.337s0.269 0.284 0.201 0.521z"></path>
<path fill="#ddd" d="M79.283 49.009c-0.079 0.278-0.288 0.461-0.467 0.41s-0.261-0.317-0.182-0.595c0.079-0.278 0.288-0.461 0.467-0.41s0.261 0.317 0.182 0.595z"></path>
<path fill="#ddd" d="M77.69 9.338c0.227-0.181 0.665-0.359 1.037 0.269 0.259 0.438 0.679 0.25 0.967 0.394s0.539 1.128-0.122 1.392c-0.662 0.264-1.954 1.031-2.414 0.272s0.303-0.858 0.272-1.462c-0.022-0.425 0.078-0.719 0.261-0.865z"></path>
<path fill="#ddd" d="M77.020 10.089c0.1 0.268 0.039 0.538-0.137 0.604s-0.399-0.098-0.499-0.365c-0.1-0.268-0.039-0.538 0.137-0.603s0.399 0.098 0.499 0.365z"></path>
<path fill="#ddd" d="M77.391 8.81c0.097 0.258 0.035 0.518-0.136 0.583s-0.389-0.092-0.486-0.35c-0.097-0.258-0.035-0.519 0.137-0.583s0.389 0.092 0.486 0.35z"></path>
<path fill="#ddd" d="M78.481 8.397c0.086 0.231 0.016 0.471-0.158 0.536s-0.385-0.069-0.471-0.3c-0.086-0.231-0.016-0.471 0.158-0.536s0.385 0.069 0.471 0.3z"></path>
<path fill="#ddd" d="M79.575 9.021c0.101 0.27 0.042 0.542-0.133 0.608s-0.398-0.101-0.499-0.371c-0.101-0.27-0.042-0.542 0.133-0.608s0.398 0.101 0.499 0.371z"></path>
</svg>
