<!-- Generated by IcoMoon.io -->
<svg version="1.1" xmlns="http://www.w3.org/2000/svg" width="21" height="16" viewBox="0 0 21 16">
<title>paw</title>
<path fill="#ffffff" d="M9.080 6.79c0.714 0.385 1.429-0.824 1.456-1.704s-0.604-1.841-1.017-2.281c-0.412-0.44-1.072-0.192-1.209 0.028 0 0-0.19 0.155-0.321 0.566-0.068 0.214-0.119 0.497-0.119 0.863 0 0.312 0.042 0.624 0.119 0.92 0.188 0.718 0.584 1.336 1.090 1.609zM12.048 7.009c0.601 0.169 1.188-0.572 1.545-1.331 0.165-0.352 0.281-0.707 0.324-0.977 0.076-0.47-0.007-1.175-0.324-1.578-0.257-0.327-0.667-0.455-1.27-0.098 0 0-0.989 0.632-1.127 1.594s-0.027 2.143 0.852 2.391zM14.493 6.68s-0.534 0.381-0.901 0.936c-0.173 0.261-0.309 0.561-0.335 0.877-0.052 0.627 0.050 1.122 0.335 1.4 0.164 0.16 0.39 0.249 0.681 0.249 0.797 0 1.814-1.154 1.814-2.226s-0.577-1.896-1.594-1.237zM7.99 8.921c0.13-0.25 0.152-0.613 0.073-1.142-0.019-0.124-0.045-0.233-0.078-0.339l0.004 0.016c-0.277-0.914-1.054-1.491-1.054-1.491-1.594-0.715-1.814 1.182-1.484 2.006s0.962 1.566 1.731 1.429c0.4-0.071 0.666-0.209 0.806-0.48zM13.592 11.003c-0.537-1.119-1.462-2.171-1.874-2.537-0.495-0.44-1.374-0.605-1.786-0.11 0 0-1.097 0.809-1.942 1.84-0.321 0.391-0.605 0.815-0.779 1.238-0.541 1.318 0.087 1.951 0.779 2.002 0.027 0.002 0.059 0.003 0.091 0.003 0.091 0 0.179-0.010 0.265-0.028l-0.008 0.001c0.797-0.165 2.033-0.962 3.353-0.44 0.752 0.298 1.486 0.274 1.902-0.051 0.314-0.245 0.446-0.661 0.269-1.24-0.069-0.226-0.161-0.453-0.269-0.678z"></path>
</svg>
