<svg version="1.1" xmlns="http://www.w3.org/2000/svg" viewBox="0 0 23 32">
    <path fill="#8a66ad" style="fill: var(--color1, #8a66ad)" d="M19.181 14.042c2.176 3.197 1.321 8.805-1.875 10.981s-7.432 0.033-9.608-3.164c-2.176-3.197-2.625-7.936 0.572-10.112s8.736-0.902 10.912 2.295zM2.864 18.4c-0.327-0.48-0.020-1.685 0.46-2.011s1.191 0.186 1.517 0.666c0.327 0.48 0.331 1.019-0.148 1.345s-1.502 0.48-1.828 0zM15.291 10.119c-0.327-0.48-0.020-1.685 0.46-2.011s1.191 0.186 1.517 0.666c0.327 0.48 0.331 1.019-0.148 1.345s-1.502 0.48-1.828 0z"></path>
    <path fill="#8a66ad" style="fill: var(--color1, #8a66ad)" d="M15.947 26.433c-0.327-0.48-0.020-1.685 0.46-2.011s1.191 0.186 1.517 0.666c0.327 0.48 0.331 1.019-0.148 1.345s-1.502 0.48-1.828 0zM2.715 26.586c-1.088-1.598-0.066-5.612 1.532-6.7s3.966 0.619 5.054 2.217c1.088 1.598 1.104 3.393-0.494 4.481s-5.003 1.599-6.091 0.001z"></path>
    <path fill="#383760" style="fill: var(--color2, #383760)" d="M15.273 26.837c0 0.406-2.265 0.734-5.059 0.734s-5.059-0.329-5.059-0.734c0-0.406 2.265-0.734 5.059-0.734s5.059 0.329 5.059 0.734z"></path>
    <path fill="#e58c33" style="fill: var(--color3, #e58c33)" d="M12.541 21.182s1.163-0.149 1.679-2.167c0 0 0.415 1.968-1.128 3.667z"></path>
    <path fill="#e58c33" style="fill: var(--color3, #e58c33)" d="M9.007 11.797s-0.833-2.235-2.032-1.624c-1.199 0.611-2.292 1.784-1.866 2.157s1.566-0.948 2.22-0.187c0.653 0.761 1.795 0.080 1.795 0.080zM11.778 11.797s0.833-2.235 2.032-1.624c1.199 0.611 2.292 1.784 1.866 2.157s-1.566-0.948-2.22-0.187c-0.653 0.761-1.795 0.080-1.795 0.080z"></path>
    <path fill="#e58c33" style="fill: var(--color3, #e58c33)" d="M9.386 26.474c0.020 0.166-0.613 0.348-1.414 0.405s-1.465-0.031-1.485-0.197c-0.020-0.166 0.613-0.348 1.414-0.405s1.465 0.031 1.485 0.197z"></path>
    <path fill="#e58c33" style="fill: var(--color3, #e58c33)" d="M9.386 26.474h-0.575c-0.108-0.085-0.192-0.155-0.276-0.225l0.016 0.013c-0.446-0.376-0.791-0.733-1.054-1.070-0.172-0.22-0.308-0.432-0.415-0.635-0.106-0.202-0.182-0.395-0.233-0.579-0.225-0.809 0.031-1.444 0.351-1.882 0.149-0.204 0.311-0.365 0.446-0.481 0.147-0.126 0.26-0.199 0.285-0.215 0.003-0.002 0.005-0.003 0.005-0.003l0.1 0.265 0.909 2.408c-0.635 0.603-0.048 1.681 0.269 2.161v0c0.048 0.073 0.087 0.128 0.127 0.183l-0.008-0.012c0.022 0.030 0.039 0.054 0.057 0.076l-0.004-0.005zM11.388 26.474c-0.020 0.166 0.613 0.348 1.414 0.405s1.465-0.031 1.485-0.197c0.020-0.166-0.613-0.348-1.414-0.405s-1.465 0.031-1.485 0.197z"></path>
    <path fill="#e58c33" style="fill: var(--color3, #e58c33)" d="M13.437 24.974c-0.212 0.306-0.492 0.628-0.855 0.968-0.109 0.103-0.226 0.207-0.346 0.308l-0.013 0.011c-0.067 0.057-0.152 0.127-0.238 0.195l-0.022 0.017h-0.575s0.020-0.025 0.053-0.071c0.032-0.043 0.071-0.099 0.109-0.155l0.010-0.016 0-0c0.317-0.48 0.904-1.558 0.268-2.161l1.009-2.672s0.002 0.001 0.005 0.003c0.022 0.014 0.11 0.070 0.229 0.168 0.242 0.198 0.61 0.565 0.805 1.083 0.222 0.588 0.221 1.371-0.44 2.323zM9.839 26.588c0.113 0.073 0.080 0.248-0.073 0.391s-0.368 0.2-0.481 0.127c-0.113-0.073-0.080-0.248 0.073-0.391s0.368-0.2 0.481-0.127zM10.951 26.574c-0.117 0.068-0.097 0.244 0.046 0.393s0.354 0.216 0.471 0.148c0.117-0.068 0.097-0.244-0.046-0.393s-0.354-0.216-0.471-0.148z"></path>
    <path fill="#e58c33" style="fill: var(--color3, #e58c33)" d="M12.919 22.445c0 0.030-0 0.060-0.001 0.090-0.020 1.607-0.565 2.996-1.358 3.696l-0 0c-0.351 0.31-0.75 0.485-1.173 0.485s-0.822-0.175-1.173-0.485v-0c-0.808-0.714-1.359-2.141-1.359-3.786 0-0.262 0.014-0.519 0.041-0.769 0.010-0.093 0.022-0.185 0.035-0.276 0.022-0.15 0.049-0.296 0.081-0.439 0.357-1.628 1.286-2.788 2.375-2.788 0.827 0 1.562 0.669 2.024 1.703v0c0.132 0.296 0.243 0.623 0.326 0.973v0c0.036 0.139 0.073 0.325 0.102 0.514l0.005 0.036c0.015 0.098 0.027 0.197 0.038 0.297 0.025 0.224 0.039 0.483 0.039 0.745 0 0.001 0 0.002 0 0.003v-0z"></path>
    <path fill="#ffe0b3" style="fill: var(--color4, #ffe0b3)" d="M12.153 23.738c0 1.645-0.791 2.979-1.766 2.979s-1.766-1.334-1.766-2.979c0-1.645 0.791-2.979 1.766-2.979s1.766 1.334 1.766 2.979z"></path>
    <path fill="#e58c33" style="fill: var(--color3, #e58c33)" d="M5.32 16.164c0.163-2.701 5.067-5.457 5.067-5.457s0.85 0.478 1.854 1.23c1.115 0.836 2.42 2.011 2.961 3.247 0.026 0.056 0.058 0.133 0.086 0.213l0.007 0.023c0.088 0.247 0.143 0.495 0.158 0.744 0 0.007 0.001 0.013 0.001 0.020 0 0.004 0 0.007 0 0.011 0.001 0.024 0.002 0.048 0.002 0.073 0 0.008 0 0.017 0 0.025-0.004 1.435-1.584 2.047-2.979 2.307-1.104 0.206-2.092 0.192-2.092 0.192s-5.231 0.074-5.067-2.628z"></path>
    <path fill="#b568a3" style="fill: var(--color5, #b568a3)" d="M11.283 17.428c0 0.865-0.399 1.566-0.89 1.566s-0.89-0.701-0.89-1.566c0-0.865 0.399-1.566 0.89-1.566s0.89 0.701 0.89 1.566z"></path>
    <path fill="#fff" style="fill: var(--color6, #fff)" d="M9.491 14.098c0 1.149-0.932 2.081-2.081 2.081s-2.081-0.932-2.081-2.081c0-1.149 0.932-2.081 2.081-2.081s2.081 0.932 2.081 2.081z"></path>
    <path fill="#4c1b09" style="fill: var(--color7, #4c1b09)" d="M8.687 14.098c0 0.706-0.572 1.278-1.278 1.278s-1.278-0.572-1.278-1.278c0-0.706 0.572-1.278 1.278-1.278s1.278 0.572 1.278 1.278z"></path>
    <path fill="#fff" style="fill: var(--color6, #fff)" d="M7.211 13.277c0 0.344-0.279 0.623-0.623 0.623s-0.623-0.279-0.623-0.623c0-0.344 0.279-0.623 0.623-0.623s0.623 0.279 0.623 0.623z"></path>
    <path fill="#fff" style="fill: var(--color6, #fff)" d="M8.889 14.956c0 0.344-0.279 0.623-0.623 0.623s-0.623-0.279-0.623-0.623c0-0.344 0.279-0.623 0.623-0.623s0.623 0.279 0.623 0.623z"></path>
    <path fill="#fff" style="fill: var(--color6, #fff)" d="M15.445 14.098c0 1.149-0.932 2.081-2.081 2.081s-2.081-0.932-2.081-2.081c0-1.149 0.932-2.081 2.081-2.081s2.081 0.932 2.081 2.081z"></path>
    <path fill="#4c1b09" style="fill: var(--color7, #4c1b09)" d="M14.642 14.098c0 0.706-0.572 1.278-1.278 1.278s-1.278-0.572-1.278-1.278c0-0.706 0.572-1.278 1.278-1.278s1.278 0.572 1.278 1.278z"></path>
    <path fill="#fff" style="fill: var(--color6, #fff)" d="M13.166 13.277c0 0.344-0.279 0.623-0.623 0.623s-0.623-0.279-0.623-0.623c0-0.344 0.279-0.623 0.623-0.623s0.623 0.279 0.623 0.623z"></path>
    <path fill="#fff" style="fill: var(--color6, #fff)" d="M14.844 14.956c0 0.344-0.279 0.623-0.623 0.623s-0.623-0.279-0.623-0.623c0-0.344 0.279-0.623 0.623-0.623s0.623 0.279 0.623 0.623z"></path>
    <path fill="#e58c33" style="fill: var(--color3, #e58c33)" d="M9.542 11.024c0 0.266-0.091 0.482-0.202 0.482s-0.202-0.216-0.202-0.482c0-0.266 0.091-0.482 0.202-0.482s0.202 0.216 0.202 0.482z"></path>
    <path fill="#e58c33" style="fill: var(--color3, #e58c33)" d="M11.163 11.166c-0.307 0.117-0.595 0.148-0.644 0.069s0.16-0.237 0.467-0.353c0.307-0.117 0.595-0.148 0.644-0.069s-0.16 0.237-0.467 0.353z"></path>
    <path fill="#e58c33" style="fill: var(--color3, #e58c33)" d="M10.899 10.974c-0.411 0.321-0.853 0.495-0.988 0.39s0.089-0.45 0.5-0.771c0.411-0.321 0.853-0.495 0.988-0.39s-0.089 0.45-0.5 0.771z"></path>
    <path fill="#e58c33" style="fill: var(--color3, #e58c33)" d="M10.393 10.669c-0.274 0.447-0.649 0.753-0.837 0.683s-0.118-0.49 0.157-0.937c0.274-0.447 0.649-0.753 0.837-0.683s0.118 0.49-0.157 0.937z"></path>
    <path fill="#fccb7d" style="fill: var(--color8, #fccb7d)" d="M10.147 17.725c-0.591 0.591-1.434 0.708-1.881 0.261s-0.331-1.29 0.261-1.881c0.591-0.591 1.434-0.708 1.881-0.261s0.331 1.29-0.261 1.881z"></path>
    <path fill="#fccb7d" style="fill: var(--color8, #fccb7d)" d="M10.627 17.725c-0.591-0.591-0.708-1.433-0.261-1.881s1.29-0.331 1.881 0.261c0.591 0.591 0.708 1.433 0.261 1.881s-1.29 0.331-1.881-0.261z"></path>
    <path fill="#4c1b09" style="fill: var(--color7, #4c1b09)" d="M11.768 15.613c0 0.282-0.618 0.904-1.381 0.904s-1.381-0.622-1.381-0.904c0-0.282 0.618-0.511 1.381-0.511s1.381 0.229 1.381 0.511z"></path>
    <path fill="#a0220a" style="fill: var(--color9, #a0220a)" d="M11.338 15.462c0 0.095-0.212 0.173-0.473 0.173s-0.473-0.077-0.473-0.173c0-0.095 0.212-0.173 0.473-0.173s0.473 0.077 0.473 0.173z"></path>
    <path fill="#e885cc" opacity="0.9" style="fill: var(--color10, #e885cc)" d="M7.941 16.041c0 0.331-0.686 0.599-1.533 0.599s-1.533-0.268-1.533-0.599c0-0.331 0.686-0.599 1.533-0.599s1.533 0.268 1.533 0.599z"></path>
    <path fill="#e885cc" opacity="0.9" style="fill: var(--color10, #e885cc)" d="M15.898 16.041c0 0.331-0.686 0.599-1.533 0.599s-1.533-0.268-1.533-0.599c0-0.331 0.686-0.599 1.533-0.599s1.533 0.268 1.533 0.599z"></path>
    <path fill="#e58c33" style="fill: var(--color3, #e58c33)" d="M9.849 26.868l-0.256 0.028-0.245-1.593-0.090-0.582h-0l-0.198-1.284-0.124-0.808-0.288-1.869 1.185-0.517 0.002 0.778 0.003 1.313 0.008 3.316 0.001 0.4z"></path>
    <path fill="#e58c33" style="fill: var(--color3, #e58c33)" d="M12.126 20.759l-0.945 6.137-0.256-0.028 0.016-6.626z"></path>
</svg>
